HIERARCHY
ROOT Hips
{
   OFFSET 0.00000 0.00000 0.00000
   CHANNELS 6 Xposition Yposition Zposition Zrotation Xrotation Yrotation
   JOINT RightUpLeg
   {
      OFFSET -8.945800 -8.667070 0.101652
      CHANNELS 3 Zrotation Xrotation Yrotation
      JOINT RightLeg
      {
         OFFSET 0.000000 -44.422697 1.372700
         CHANNELS 3 Zrotation Xrotation Yrotation
         JOINT RightFoot
         {
            OFFSET 0.253549 -42.092399 -1.460590
            CHANNELS 3 Zrotation Xrotation Yrotation
            JOINT RightToes
            {
               OFFSET 0.040000 -4.415090 8.499099
               CHANNELS 3 Zrotation Xrotation Yrotation
               End Site
               {
                  OFFSET -0.080000 -0.137448 9.779790
               }
            }
         }
      }
   }
   JOINT Spine
   {
      OFFSET 0.000000 11.890501 0.000000
      CHANNELS 3 Zrotation Xrotation Yrotation
      JOINT Spine1
      {
         OFFSET 0.000000 25.657401 0.127663
         CHANNELS 3 Zrotation Xrotation Yrotation
         JOINT HEad
         {
            OFFSET 0.000000 8.734161 0.011341
            CHANNELS 3 Zrotation Xrotation Yrotation
            End Site
            {
               OFFSET -0.290000 12.774200 2.513950
            }
         }
         JOINT LeftShoulder1
         {
            OFFSET 8.990000 -0.362252 -0.220000
            CHANNELS 3 Zrotation Xrotation Yrotation
            JOINT LeftArm
            {
               OFFSET 10.282700 -0.003380 0.322123
               CHANNELS 3 Zrotation Xrotation Yrotation
               JOINT LeftForeArm
               {
                  OFFSET 32.766900 0.099144 -1.424340
                  CHANNELS 3 Zrotation Xrotation Yrotation
                  JOINT LeftHand
                  {
                     OFFSET 27.564301 0.085362 1.022160
                     CHANNELS 3 Zrotation Xrotation Yrotation
                     End Site
                     {
                        OFFSET 16.744301 -0.600000 1.502910
                     }
                  }
               }
            }
         }
         JOINT RightShoulder
         {
            OFFSET -8.990000 -0.362252 -0.220000
            CHANNELS 3 Zrotation Xrotation Yrotation
            JOINT RightArm
            {
               OFFSET -10.282700 -0.003380 0.322123
               CHANNELS 3 Zrotation Xrotation Yrotation
               JOINT RightForeArm
               {
                  OFFSET -32.897098 0.099144 -1.424340
                  CHANNELS 3 Zrotation Xrotation Yrotation
                  JOINT RightHand
                  {
                     OFFSET -27.492101 0.085362 1.022160
                     CHANNELS 3 Zrotation Xrotation Yrotation
                     End Site
                     {
                        OFFSET -16.631201 -0.600000 1.502910
                     }
                  }
               }
            }
         }
      }
   }
   JOINT LeftUpLeg
   {
      OFFSET 8.945800 -8.667070 0.101652
      CHANNELS 3 Zrotation Xrotation Yrotation
      JOINT LeftLeg
      {
         OFFSET 0.000000 -44.422697 1.372700
         CHANNELS 3 Zrotation Xrotation Yrotation
         JOINT LeftFoot
         {
            OFFSET -0.253549 -42.092399 -1.460590
            CHANNELS 3 Zrotation Xrotation Yrotation
            JOINT LeftToes
            {
               OFFSET -0.040000 -4.415090 8.499099
               CHANNELS 3 Zrotation Xrotation Yrotation
               End Site
               {
                  OFFSET 0.080000 -0.047448 9.779790
               }
            }
         }
      }
   }
}
MOTION
Frames: 10
Frame Time: 0.016667
-190.684068 104.557083 -398.596987 -13.355798 20.263175 -172.075742 -19.911371 12.727789 -64.115314 -26.076069 13.941075 -14.483503 -30.655672 3.248001 60.877080 -0.362048 -4.672698 -6.885829 -24.716838 8.679232 8.165992 1.501752 23.250814 -1.969051 23.627228 22.042030 -12.933650 -7.045224 31.012921 -30.233675 -13.089003 -60.138777 -45.522480 1.216929 -12.110550 -44.240819 -45.841798 -32.088881 -52.808246 15.714814 93.327582 29.230935 109.012783 180.767308 183.830430 -0.516911 249.193195 68.881167 1.834918 -4.538706 46.502469 9.221684 -11.289938 -121.424111 -16.626033 -23.196898 161.006820 -57.098394 29.926494 29.958248 -25.750028 -3.376807 -5.573574
-190.882146 104.279793 -397.897867 -12.222332 20.850769 -171.911941 -18.984442 12.118554 -65.722307 -27.416413 14.126312 -14.296763 -31.494269 2.571980 61.049091 -0.998101 -6.081552 -6.452004 -23.650469 12.503226 10.241657 3.433972 19.623159 -10.687812 21.615768 21.497228 -8.440305 -3.931824 34.574114 -29.148246 -14.303547 -64.019001 -44.662802 5.077012 -12.196961 -42.973272 -46.412771 -33.249429 -54.485666 7.285231 80.698822 34.681515 112.271166 196.172158 196.368499 -2.082295 265.671737 64.175276 1.391466 -3.930706 41.268765 9.787594 -15.384240 -120.173572 -16.242094 -24.468562 150.095634 -34.069554 31.865520 26.917743 -25.769160 -0.950937 -5.226171
-191.480004 103.385456 -397.560152 -10.595573 23.017029 -174.486280 -18.910536 12.363398 -64.082290 -28.689906 15.413020 -14.407242 -31.911183 1.932152 61.386339 -1.516976 -7.094789 -6.098166 -19.712298 17.316932 15.921207 6.983033 15.910053 -19.543413 18.644311 18.573499 -4.302736 -2.415095 37.300684 -28.214864 -17.127002 -65.452139 -44.988885 8.780071 -14.050688 -43.696156 -49.031695 -35.554184 -58.248632 3.510700 72.566327 41.785841 123.214236 208.945691 209.024880 -3.141204 281.823632 67.177199 4.172631 -4.573693 45.744413 9.354940 -14.934661 -118.741855 -14.905800 -25.119373 141.826597 -11.193478 32.079373 24.496564 -25.761399 1.096693 -4.993702
-192.318570 102.484654 -397.621607 -8.803935 26.469927 -175.542815 -18.189770 14.436529 -62.197690 -30.223618 16.817637 -14.661462 -31.311592 1.840676 61.729153 -1.894945 -7.711005 -6.062679 -18.120982 20.960954 23.052483 8.227987 14.484360 -28.741993 14.720569 17.113734 -0.454214 0.521313 40.772022 -24.530027 -19.204482 -68.004929 -46.247102 12.232215 -14.616448 -42.606706 -50.462780 -36.964772 -61.108541 -2.297036 64.862769 44.600258 136.215678 219.322838 220.881638 -3.592310 296.341308 65.298405 2.950708 -3.881298 43.986125 13.549137 -10.949551 -118.174130 -13.018761 -24.620221 137.289835 -34.767446 26.341028 27.762484 -25.715193 -2.293424 -3.823947
-193.180749 101.701659 -397.961153 -6.427082 29.286072 -177.160135 -16.881327 16.455382 -60.712664 -31.283615 17.264999 -14.313109 -30.658773 1.734159 62.076447 -2.298421 -8.684113 -6.028068 -15.355657 24.299836 30.175728 10.385940 13.080634 -37.975770 10.880692 15.501388 2.816588 2.685639 44.023503 -23.454436 -20.752159 -68.710207 -46.269634 15.481288 -15.532243 -40.556004 -53.289348 -38.904505 -63.729975 -7.174164 60.697494 46.785348 151.410759 226.592400 233.157769 -4.759151 310.417426 62.109827 2.864554 -4.479714 43.957588 14.210291 -10.442418 -119.522764 -11.717430 -25.620478 134.015265 -23.465704 25.798202 28.168416 -25.428340 -3.993720 -3.718892
-194.153840 100.622147 -398.721765 -4.138375 31.725078 181.164634 -16.097231 17.861757 -59.390182 -32.683562 18.673698 -14.097405 -30.023565 1.742212 62.186516 -2.627560 -9.618231 -6.259537 -12.448401 26.786527 36.098677 13.872293 10.504857 -48.577600 7.324884 13.338248 5.489528 4.874979 47.300447 -24.117900 -20.204494 -67.818874 -44.622463 18.498015 -18.011649 -37.796416 -55.078038 -40.475288 -66.743878 -10.502958 59.138537 48.793007 168.146294 232.391231 245.742912 -5.291793 323.290366 60.325310 1.054151 -4.393736 42.076117 15.897166 -9.221174 -122.922341 -10.723611 -25.408058 132.572537 -28.690100 25.691195 28.997329 -24.912552 -5.678264 -4.455384
-195.233495 99.550703 -399.823335 -2.217954 32.944171 179.528135 -15.990699 18.340333 -58.835038 -33.837669 19.638676 -13.487195 -29.729310 2.308085 62.465065 -2.953205 -10.561685 -6.365910 -9.413637 25.908057 44.276834 16.082698 7.797142 -57.815741 2.571730 10.962267 7.866519 6.809630 50.041644 -24.961350 -17.831452 -66.801265 -41.790543 21.674705 -20.971030 -35.554177 -57.589006 -41.828341 -71.167928 -13.256228 58.490742 50.559980 183.328588 236.977921 257.581761 -6.152538 335.127494 59.345936 -0.092250 -5.382417 41.543174 15.876954 -9.898898 -126.932304 -10.104861 -25.014443 133.475488 -26.461179 26.074500 30.328349 -24.434425 -7.384873 -5.069793
-196.402890 98.737544 -401.302026 0.050837 32.511437 178.003049 -15.099047 17.950376 -59.001565 -34.350309 20.292649 -13.002912 -29.020934 1.423909 61.794962 -3.285200 -12.763299 -7.340814 -7.276761 28.526500 53.187096 18.607517 5.622342 -66.645714 -4.421021 10.787101 10.086794 9.583006 50.428540 -24.631132 -14.792320 -65.550835 -38.750737 25.130455 -25.316528 -33.434223 -58.851000 -43.609737 -75.841908 -14.901948 57.949196 52.178059 196.364455 241.651219 268.927852 -7.658993 345.838487 60.458116 -2.267582 -6.304309 40.643696 16.298346 -11.661126 -131.618059 -9.565444 -24.416000 135.814214 -28.294088 25.828372 31.673619 -23.874479 -9.466218 -5.935478
-197.586228 98.155173 -403.056673 2.212990 32.918124 176.171083 -14.744102 18.608946 -59.136413 -35.070880 21.090009 -12.165472 -28.198318 0.645213 61.209758 -3.518551 -14.719788 -8.503112 -4.910988 28.967662 62.149189 21.949624 2.470673 -75.433955 -10.656076 10.175536 11.763433 12.315011 51.425655 -26.516391 349.983237 -63.960712 -34.275993 28.886868 -29.074913 -28.849397 -60.531561 -45.889121 -78.631583 -16.258212 57.694956 53.680024 209.250727 245.227205 280.750527 -9.157372 355.703357 61.174466 -4.039853 -7.876600 40.385836 16.629878 -12.246291 -135.739682 -9.438424 -23.978431 138.177363 -28.511901 25.287787 32.807728 -23.292847 -11.512999 -6.840098
-198.689572 97.732085 -405.006479 4.409490 33.551337 174.450927 -14.455616 20.082804 -59.375094 -33.705430 21.787511 -10.895369 -28.887588 0.420491 61.424936 -3.686047 -16.092419 -9.422015 -2.721160 28.498047 71.601256 25.982181 -1.000489 -83.627347 -16.180722 10.112472 12.911177 14.961261 51.875895 -29.155448 356.581937 -62.189774 -28.859117 32.482037 -33.064362 -23.795266 -61.499515 -48.707735 -80.560790 -17.061876 58.032750 54.940208 222.204932 248.126620 292.939901 -11.083492 364.291117 62.387890 -6.622544 -9.542856 39.341719 16.937237 -10.724560 -139.147687 -8.932738 -22.842550 140.191668 -28.959568 24.161077 33.473173 -22.683441 -13.466153 -7.948885
